<svg xmlns="http://www.w3.org/2000/svg" width="1515" height="900" viewBox="0 0 1515 900"><rect width="1440" height="900" fill="none"/><circle cx="20.5" cy="20.5" r="20.5" transform="translate(527 689)" fill="#3727ab"/><rect width="361" height="16" transform="translate(979 534)" fill="#d3e9ff"/><circle cx="12.5" cy="12.5" r="12.5" transform="translate(1179 173)" fill="#3727ab"/><circle cx="97.5" cy="97.5" r="97.5" transform="translate(526 536)" fill="#d4eaff"/><circle cx="20.5" cy="20.5" r="20.5" transform="translate(761 801)" fill="#d4eaff"/><g transform="translate(1217 750)" fill="none" stroke="#222" stroke-width="2"><circle cx="20.5" cy="20.5" r="20.5" stroke="none"/><circle cx="20.5" cy="20.5" r="19.5" fill="none"/></g><circle cx="175.5" cy="175.5" r="175.5" transform="translate(1164 323)" fill="#d4eaff" opacity="0.336"/><circle cx="25.5" cy="25.5" r="25.5" transform="translate(13 583)" fill="#d4eaff"/><path d="M-2464.985,17236.969s-23.871-35.027,3-52.35c20.061-1.088-4.015,31.3-19.635,19.109s-2.457-31.559,3.125-25.977-8.542,15.555-18.911,11.2-5.271-18.715,0-18.059-3.271,21.473-11.6,0" transform="translate(3202 -17018)" fill="none" stroke="#222" stroke-width="2"/></svg>